<svg xmlns="http://www.w3.org/2000/svg" xmlns:xlink="http://www.w3.org/1999/xlink" width="500" zoomAndPan="magnify" viewBox="0 0 375 374.999991" height="500" preserveAspectRatio="xMidYMid meet" version="1.0"><defs><g/></defs><g fill="#000000" fill-opacity="1"><g transform="translate(57.347664, 212.549684)"><g><path d="M 5.546875 0 L 5.546875 -47.421875 L 21.90625 -47.421875 L 21.90625 -42.4375 L 22.09375 -42.4375 C 26.34375 -46.6875 30.875 -48.8125 35.6875 -48.8125 C 39.132812 -48.8125 42.367188 -48.101562 45.390625 -46.6875 C 48.410156 -45.269531 50.691406 -43.082031 52.234375 -40.125 C 57.046875 -45.914062 62.285156 -48.8125 67.953125 -48.8125 C 73.003906 -48.8125 77.347656 -47.394531 80.984375 -44.5625 C 84.617188 -41.726562 86.4375 -37.289062 86.4375 -31.25 L 86.4375 0 L 70.078125 0 L 70.078125 -26.8125 C 70.078125 -29.34375 69.382812 -31.453125 68 -33.140625 C 66.613281 -34.835938 64.535156 -35.6875 61.765625 -35.6875 C 59.359375 -35.6875 57.519531 -34.960938 56.25 -33.515625 C 54.988281 -32.066406 54.296875 -30.328125 54.171875 -28.296875 L 54.171875 0 L 37.8125 0 L 37.8125 -26.8125 C 37.8125 -29.34375 37.117188 -31.453125 35.734375 -33.140625 C 34.347656 -34.835938 32.269531 -35.6875 29.5 -35.6875 C 26.96875 -35.6875 25.066406 -34.898438 23.796875 -33.328125 C 22.535156 -31.753906 21.90625 -29.890625 21.90625 -27.734375 L 21.90625 0 Z M 5.546875 0 "/></g></g></g><g fill="#000000" fill-opacity="1"><g transform="translate(139.704075, 212.549684)"><g><path d="M 7.109375 -73.859375 C 9.023438 -75.773438 11.304688 -76.734375 13.953125 -76.734375 C 16.609375 -76.734375 18.890625 -75.773438 20.796875 -73.859375 C 22.710938 -71.953125 23.671875 -69.671875 23.671875 -67.015625 C 23.671875 -64.367188 22.710938 -62.09375 20.796875 -60.1875 C 18.890625 -58.28125 16.609375 -57.328125 13.953125 -57.328125 C 11.304688 -57.328125 9.023438 -58.28125 7.109375 -60.1875 C 5.203125 -62.09375 4.25 -64.367188 4.25 -67.015625 C 4.25 -69.671875 5.203125 -71.953125 7.109375 -73.859375 Z M 5.546875 -47.421875 L 5.546875 0 L 21.90625 0 L 21.90625 -47.421875 Z M 5.546875 -47.421875 "/></g></g></g><g fill="#000000" fill-opacity="1"><g transform="translate(158.927882, 212.549684)"><g><path d="M 30.78125 -35.40625 C 27.707031 -35.40625 25.054688 -34.265625 22.828125 -31.984375 C 20.609375 -29.703125 19.5 -26.960938 19.5 -23.765625 C 19.5 -20.492188 20.609375 -17.71875 22.828125 -15.4375 C 25.054688 -13.15625 27.707031 -12.015625 30.78125 -12.015625 C 32.257812 -12.015625 33.660156 -12.195312 34.984375 -12.5625 C 36.316406 -12.9375 37.289062 -13.3125 37.90625 -13.6875 L 38.734375 -14.234375 L 44.28125 -2.859375 C 43.851562 -2.554688 43.253906 -2.171875 42.484375 -1.703125 C 41.710938 -1.242188 39.953125 -0.613281 37.203125 0.1875 C 34.460938 0.988281 31.523438 1.390625 28.390625 1.390625 C 21.421875 1.390625 15.300781 -1.054688 10.03125 -5.953125 C 4.757812 -10.859375 2.125 -16.734375 2.125 -23.578125 C 2.125 -30.484375 4.757812 -36.414062 10.03125 -41.375 C 15.300781 -46.332031 21.421875 -48.8125 28.390625 -48.8125 C 31.523438 -48.8125 34.414062 -48.441406 37.0625 -47.703125 C 39.71875 -46.960938 41.601562 -46.222656 42.71875 -45.484375 L 44.28125 -44.375 L 38.734375 -33.1875 C 36.703125 -34.664062 34.050781 -35.40625 30.78125 -35.40625 Z M 30.78125 -35.40625 "/></g></g></g><g fill="#000000" fill-opacity="1"><g transform="translate(195.621763, 212.549684)"><g><path d="M 5.546875 0 L 5.546875 -47.421875 L 21.90625 -47.421875 L 21.90625 -40.59375 L 22.09375 -40.59375 C 22.21875 -40.832031 22.414062 -41.132812 22.6875 -41.5 C 22.96875 -41.875 23.570312 -42.523438 24.5 -43.453125 C 25.425781 -44.378906 26.410156 -45.210938 27.453125 -45.953125 C 28.503906 -46.691406 29.859375 -47.351562 31.515625 -47.9375 C 33.179688 -48.519531 34.878906 -48.8125 36.609375 -48.8125 C 38.398438 -48.8125 40.15625 -48.566406 41.875 -48.078125 C 43.601562 -47.585938 44.867188 -47.09375 45.671875 -46.59375 L 46.96875 -45.859375 L 40.125 -31.984375 C 38.09375 -33.710938 35.257812 -34.578125 31.625 -34.578125 C 29.644531 -34.578125 27.945312 -34.144531 26.53125 -33.28125 C 25.113281 -32.414062 24.113281 -31.367188 23.53125 -30.140625 C 22.945312 -28.910156 22.53125 -27.863281 22.28125 -27 C 22.03125 -26.132812 21.90625 -25.457031 21.90625 -24.96875 L 21.90625 0 Z M 5.546875 0 "/></g></g></g><g fill="#000000" fill-opacity="1"><g transform="translate(232.962682, 212.549684)"><g><path d="M 10.03125 -5.640625 C 4.757812 -10.328125 2.125 -16.335938 2.125 -23.671875 C 2.125 -31.003906 4.863281 -37.023438 10.34375 -41.734375 C 15.832031 -46.453125 22.613281 -48.8125 30.6875 -48.8125 C 38.644531 -48.8125 45.347656 -46.4375 50.796875 -41.6875 C 56.253906 -36.945312 58.984375 -30.941406 58.984375 -23.671875 C 58.984375 -16.398438 56.316406 -10.40625 50.984375 -5.6875 C 45.648438 -0.96875 38.882812 1.390625 30.6875 1.390625 C 22.1875 1.390625 15.300781 -0.953125 10.03125 -5.640625 Z M 22.6875 -31.703125 C 20.5625 -29.609375 19.5 -26.925781 19.5 -23.65625 C 19.5 -20.394531 20.515625 -17.734375 22.546875 -15.671875 C 24.585938 -13.609375 27.273438 -12.578125 30.609375 -12.578125 C 33.804688 -12.578125 36.4375 -13.625 38.5 -15.71875 C 40.570312 -17.8125 41.609375 -20.460938 41.609375 -23.671875 C 41.609375 -26.929688 40.539062 -29.609375 38.40625 -31.703125 C 36.28125 -33.804688 33.679688 -34.859375 30.609375 -34.859375 C 27.460938 -34.859375 24.820312 -33.804688 22.6875 -31.703125 Z M 22.6875 -31.703125 "/></g></g></g><g fill="#000000" fill-opacity="1"><g transform="translate(285.370401, 212.549684)"><g><path d="M 16.09375 -19.78125 C 19.050781 -19.78125 21.5625 -18.75 23.625 -16.6875 C 25.6875 -14.625 26.71875 -12.113281 26.71875 -9.15625 C 26.71875 -6.257812 25.6875 -3.773438 23.625 -1.703125 C 21.5625 0.359375 19.050781 1.390625 16.09375 1.390625 C 13.1875 1.390625 10.703125 0.359375 8.640625 -1.703125 C 6.578125 -3.773438 5.546875 -6.257812 5.546875 -9.15625 C 5.546875 -12.113281 6.578125 -14.625 8.640625 -16.6875 C 10.703125 -18.75 13.1875 -19.78125 16.09375 -19.78125 Z M 16.09375 -19.78125 "/></g></g></g><g fill="#000000" fill-opacity="1"><g transform="translate(149.761306, 237.661274)"><g><path d="M 6.21875 -9.96875 C 7.0625 -9.96875 7.820312 -9.75 8.5 -9.3125 C 9.1875 -8.882812 9.722656 -8.285156 10.109375 -7.515625 C 10.503906 -6.742188 10.703125 -5.875 10.703125 -4.90625 C 10.703125 -3.945312 10.503906 -3.070312 10.109375 -2.28125 C 9.722656 -1.5 9.1875 -0.890625 8.5 -0.453125 C 7.820312 -0.0234375 7.070312 0.1875 6.25 0.1875 C 5.601562 0.1875 5 0.046875 4.4375 -0.234375 C 3.882812 -0.523438 3.4375 -0.878906 3.09375 -1.296875 L 3.09375 -0.765625 C 3.09375 -0.515625 3.007812 -0.300781 2.84375 -0.125 C 2.675781 0.0390625 2.460938 0.125 2.203125 0.125 C 1.953125 0.125 1.742188 0.0390625 1.578125 -0.125 C 1.410156 -0.289062 1.328125 -0.503906 1.328125 -0.765625 L 1.328125 -12.875 C 1.328125 -13.132812 1.40625 -13.347656 1.5625 -13.515625 C 1.726562 -13.679688 1.941406 -13.765625 2.203125 -13.765625 C 2.460938 -13.765625 2.675781 -13.675781 2.84375 -13.5 C 3.007812 -13.332031 3.09375 -13.125 3.09375 -12.875 L 3.09375 -8.34375 C 3.382812 -8.78125 3.816406 -9.160156 4.390625 -9.484375 C 4.960938 -9.804688 5.570312 -9.96875 6.21875 -9.96875 Z M 6.015625 -1.453125 C 6.578125 -1.453125 7.085938 -1.601562 7.546875 -1.90625 C 8.015625 -2.207031 8.375 -2.617188 8.625 -3.140625 C 8.875 -3.671875 9 -4.257812 9 -4.90625 C 9 -5.550781 8.875 -6.132812 8.625 -6.65625 C 8.375 -7.175781 8.015625 -7.585938 7.546875 -7.890625 C 7.085938 -8.191406 6.578125 -8.34375 6.015625 -8.34375 C 5.429688 -8.34375 4.910156 -8.191406 4.453125 -7.890625 C 3.992188 -7.585938 3.632812 -7.179688 3.375 -6.671875 C 3.125 -6.160156 3 -5.570312 3 -4.90625 C 3 -4.25 3.125 -3.660156 3.375 -3.140625 C 3.632812 -2.617188 3.992188 -2.207031 4.453125 -1.90625 C 4.910156 -1.601562 5.429688 -1.453125 6.015625 -1.453125 Z M 6.015625 -1.453125 "/></g></g></g><g fill="#000000" fill-opacity="1"><g transform="translate(173.312348, 237.661274)"><g><path d="M 3.234375 -0.890625 C 3.234375 -0.640625 3.144531 -0.425781 2.96875 -0.25 C 2.800781 -0.0820312 2.59375 0 2.34375 0 C 2.09375 0 1.882812 -0.0820312 1.71875 -0.25 C 1.550781 -0.425781 1.46875 -0.640625 1.46875 -0.890625 L 1.46875 -12.875 C 1.46875 -13.125 1.550781 -13.332031 1.71875 -13.5 C 1.894531 -13.675781 2.109375 -13.765625 2.359375 -13.765625 C 2.609375 -13.765625 2.816406 -13.675781 2.984375 -13.5 C 3.148438 -13.332031 3.234375 -13.125 3.234375 -12.875 Z M 3.234375 -0.890625 "/></g></g></g><g fill="#000000" fill-opacity="1"><g transform="translate(190.149937, 237.661274)"><g><path d="M 10.546875 -4.875 C 10.546875 -3.90625 10.328125 -3.035156 9.890625 -2.265625 C 9.460938 -1.492188 8.875 -0.890625 8.125 -0.453125 C 7.375 -0.0234375 6.546875 0.1875 5.640625 0.1875 C 4.734375 0.1875 3.90625 -0.0234375 3.15625 -0.453125 C 2.40625 -0.890625 1.8125 -1.492188 1.375 -2.265625 C 0.9375 -3.035156 0.71875 -3.90625 0.71875 -4.875 C 0.71875 -5.84375 0.9375 -6.71875 1.375 -7.5 C 1.8125 -8.28125 2.40625 -8.882812 3.15625 -9.3125 C 3.90625 -9.75 4.734375 -9.96875 5.640625 -9.96875 C 6.546875 -9.96875 7.375 -9.75 8.125 -9.3125 C 8.875 -8.882812 9.460938 -8.28125 9.890625 -7.5 C 10.328125 -6.71875 10.546875 -5.84375 10.546875 -4.875 Z M 8.78125 -4.875 C 8.78125 -5.539062 8.640625 -6.140625 8.359375 -6.671875 C 8.085938 -7.203125 7.710938 -7.613281 7.234375 -7.90625 C 6.753906 -8.195312 6.222656 -8.34375 5.640625 -8.34375 C 5.054688 -8.34375 4.523438 -8.195312 4.046875 -7.90625 C 3.566406 -7.613281 3.1875 -7.203125 2.90625 -6.671875 C 2.632812 -6.140625 2.5 -5.539062 2.5 -4.875 C 2.5 -4.21875 2.632812 -3.628906 2.90625 -3.109375 C 3.1875 -2.585938 3.566406 -2.179688 4.046875 -1.890625 C 4.523438 -1.597656 5.054688 -1.453125 5.640625 -1.453125 C 6.222656 -1.453125 6.753906 -1.597656 7.234375 -1.890625 C 7.710938 -2.179688 8.085938 -2.585938 8.359375 -3.109375 C 8.640625 -3.628906 8.78125 -4.21875 8.78125 -4.875 Z M 8.78125 -4.875 "/></g></g></g><g fill="#000000" fill-opacity="1"><g transform="translate(213.5522, 237.661274)"><g><path d="M 9.46875 -9.875 C 9.726562 -9.875 9.941406 -9.789062 10.109375 -9.625 C 10.273438 -9.457031 10.359375 -9.238281 10.359375 -8.96875 L 10.359375 -0.78125 C 10.359375 0.21875 10.144531 1.054688 9.71875 1.734375 C 9.289062 2.410156 8.710938 2.910156 7.984375 3.234375 C 7.253906 3.554688 6.429688 3.71875 5.515625 3.71875 C 5.015625 3.71875 4.429688 3.628906 3.765625 3.453125 C 3.097656 3.285156 2.675781 3.109375 2.5 2.921875 C 2.113281 2.722656 1.921875 2.472656 1.921875 2.171875 C 1.921875 2.097656 1.941406 2 1.984375 1.875 C 2.128906 1.570312 2.363281 1.421875 2.6875 1.421875 C 2.84375 1.421875 3.015625 1.457031 3.203125 1.53125 C 4.191406 1.914062 4.96875 2.109375 5.53125 2.109375 C 6.519531 2.109375 7.273438 1.867188 7.796875 1.390625 C 8.328125 0.910156 8.59375 0.253906 8.59375 -0.578125 L 8.59375 -1.578125 C 8.332031 -1.097656 7.894531 -0.679688 7.28125 -0.328125 C 6.664062 0.015625 6.019531 0.1875 5.34375 0.1875 C 4.488281 0.1875 3.707031 -0.0234375 3 -0.453125 C 2.289062 -0.890625 1.734375 -1.492188 1.328125 -2.265625 C 0.921875 -3.046875 0.71875 -3.921875 0.71875 -4.890625 C 0.71875 -5.859375 0.921875 -6.726562 1.328125 -7.5 C 1.734375 -8.28125 2.285156 -8.882812 2.984375 -9.3125 C 3.679688 -9.75 4.453125 -9.96875 5.296875 -9.96875 C 5.984375 -9.96875 6.617188 -9.8125 7.203125 -9.5 C 7.796875 -9.195312 8.257812 -8.820312 8.59375 -8.375 L 8.59375 -8.96875 C 8.59375 -9.226562 8.671875 -9.441406 8.828125 -9.609375 C 8.992188 -9.785156 9.207031 -9.875 9.46875 -9.875 Z M 5.546875 -1.453125 C 6.148438 -1.453125 6.6875 -1.597656 7.15625 -1.890625 C 7.632812 -2.179688 8.003906 -2.585938 8.265625 -3.109375 C 8.535156 -3.640625 8.671875 -4.234375 8.671875 -4.890625 C 8.671875 -5.546875 8.535156 -6.132812 8.265625 -6.65625 C 8.003906 -7.175781 7.632812 -7.585938 7.15625 -7.890625 C 6.6875 -8.191406 6.148438 -8.34375 5.546875 -8.34375 C 4.953125 -8.34375 4.414062 -8.191406 3.9375 -7.890625 C 3.46875 -7.585938 3.097656 -7.171875 2.828125 -6.640625 C 2.566406 -6.117188 2.4375 -5.535156 2.4375 -4.890625 C 2.4375 -4.242188 2.566406 -3.65625 2.828125 -3.125 C 3.097656 -2.601562 3.46875 -2.191406 3.9375 -1.890625 C 4.414062 -1.597656 4.953125 -1.453125 5.546875 -1.453125 Z M 5.546875 -1.453125 "/></g></g></g></svg>